<svg width="163" height="68" viewBox="0 0 163 68" fill="none" xmlns="http://www.w3.org/2000/svg">
<path d="M67.232 3.0479C64 3.0479 61.312 4.2639 59.168 6.6959C57.056 9.1599 56 12.1519 56 15.6719V24.0719C56 24.8399 56.016 25.3999 56.048 25.7519C56.112 26.1039 56.256 26.5199 56.48 26.9999C56.928 27.8639 58.176 28.2959 60.224 28.2959C62.464 28.2959 63.776 27.6879 64.16 26.4719C64.352 25.9599 64.448 25.1439 64.448 24.0239V15.6239C64.448 14.3119 64.816 13.2879 65.552 12.5519C66.32 11.8159 67.328 11.4479 68.576 11.4479C69.856 11.4479 70.88 11.8319 71.648 12.5999C72.448 13.3679 72.848 14.3759 72.848 15.6239V24.1199C72.848 24.8559 72.864 25.3999 72.896 25.7519C72.96 26.1359 73.12 26.5679 73.376 27.0479C73.792 27.8799 75.024 28.2959 77.072 28.2959C79.088 28.2959 80.32 27.8639 80.768 26.9999C80.992 26.5199 81.12 26.0879 81.152 25.7039C81.216 25.3519 81.248 24.6734 81.248 23.9374V7.0799C81.248 6.3759 81.216 5.8319 81.152 5.4479C81.12 5.0959 80.976 4.6959 80.72 4.2479C80.24 3.4159 79.008 2.9999 77.024 2.9999C75.072 2.9999 73.872 3.3839 73.424 4.1519C73.104 4.6959 72.944 5.3519 72.944 6.1199C72.816 5.8959 72.528 5.5759 72.08 5.1599C71.632 4.7439 71.2 4.3919 70.784 4.1039C69.696 3.3999 68.512 3.0479 67.232 3.0479Z" fill="#A1DA75"/>
<rect x="53" width="34" height="23" fill="#F5F8FF"/>
<rect x="53" y="18" width="14" height="11" fill="#F5F8FF"/>
<path d="M49.484 3.252C46.252 3.252 43.564 4.468 41.42 6.9C39.308 9.364 38.252 12.356 38.252 15.876V24.276C38.252 25.044 38.268 25.604 38.3 25.956C38.364 26.308 38.508 26.724 38.732 27.204C39.18 28.068 40.428 28.5 42.476 28.5C44.716 28.5 46.028 27.892 46.412 26.676C46.604 26.164 46.7 25.348 46.7 24.228V15.828C46.7 14.516 47.068 13.492 47.804 12.756C48.572 12.02 49.58 11.652 50.828 11.652C52.108 11.652 53.132 12.036 53.9 12.804C54.7 13.572 55.1 14.58 55.1 15.828L55 24C55 24.736 55.116 25.604 55.148 25.956C55.212 26.34 55.372 26.772 55.628 27.252C56.044 28.084 57.276 28.5 59.324 28.5C61.34 28.5 62.572 28.068 63.02 27.204C63.244 26.724 63.372 26.292 63.404 25.908C63.468 25.556 63.5 25.012 63.5 24.276V7.284C63.5 6.58 63.468 6.036 63.404 5.652C63.372 5.3 63.228 4.9 62.972 4.452C62.492 3.62 61.26 3.204 59.276 3.204C57.324 3.204 56.124 3.588 55.676 4.356C55.356 4.9 55.196 5.556 55.196 6.324C55.068 6.1 54.78 5.78 54.332 5.364C53.884 4.948 53.452 4.596 53.036 4.308C51.948 3.604 50.764 3.252 49.484 3.252Z" fill="#A1DA75"/>
<rect x="35" y="1" width="34" height="23" fill="#F5F8FF"/>
<rect x="36" y="19" width="14" height="11" fill="#F5F8FF"/>
<path fill-rule="evenodd" clip-rule="evenodd" d="M54.9976 24H63.4944C63.5352 22.531 64.0303 21.4136 64.9797 20.648C65.9717 19.848 67.0437 19.448 68.1957 19.448C69.3477 19.448 70.4197 19.832 71.4117 20.6C72.3816 21.3509 72.8774 22.4843 72.8989 24H81.3945C81.349 20.2504 80.0214 17.1651 77.4117 14.744C74.7557 12.248 71.6997 11 68.2437 11C64.7877 11 61.7157 12.248 59.0277 14.744C56.3978 17.1861 55.0544 20.2714 54.9976 24Z" fill="#A1DA75"/>
<path d="M75.1094 24H81.3984C81.3984 24 81.3557 25.2503 81.1094 26C80.2304 28.6754 75.1094 28 75.1094 27C75.1094 26 75.1094 24 75.1094 24Z" fill="#A1DA75"/>
<path d="M16.8 44.328L23.184 49.608C23.984 50.28 24.48 50.792 24.672 51.144C24.896 51.496 25.008 51.832 25.008 52.152C25.008 52.92 24.512 53.96 23.52 55.272C22.432 56.616 21.472 57.288 20.64 57.288C19.936 57.288 18.96 56.824 17.712 55.896L17.232 55.56C16.496 54.952 15.36 53.896 13.824 52.392C12.288 50.856 11.12 49.768 10.32 49.128V52.824C10.32 53.56 10.288 54.12 10.224 54.504C10.192 54.856 10.048 55.272 9.792 55.752C9.376 56.584 8.144 57 6.096 57C4.08 57 2.848 56.568 2.4 55.704C2.176 55.224 2.032 54.808 1.968 54.456C1.936 54.072 1.92 53.512 1.92 52.776V24.024C1.92 23.288 1.936 22.744 1.968 22.392C2.032 22.008 2.176 21.576 2.4 21.096C2.848 20.232 4.096 19.8 6.144 19.8C7.68 19.8 8.768 20.072 9.408 20.616C9.952 21.064 10.24 21.768 10.272 22.728C10.304 23.016 10.32 23.464 10.32 24.072V39.288C10.896 38.808 11.76 37.992 12.912 36.84C14.096 35.688 14.976 34.872 15.552 34.392L16.128 34.008C17.248 33.144 18.208 32.712 19.008 32.712C19.808 32.712 20.72 33.368 21.744 34.68C22.8 35.96 23.328 36.968 23.328 37.704C23.328 38.44 22.736 39.304 21.552 40.296L16.8 44.328ZM37.4333 56.904C34.2013 56.904 31.5133 55.688 29.3693 53.256C27.2573 50.792 26.2013 47.8 26.2013 44.28V35.88C26.2013 35.112 26.2173 34.552 26.2493 34.2C26.3133 33.848 26.4573 33.432 26.6813 32.952C27.1293 32.088 28.3773 31.656 30.4253 31.656C32.6653 31.656 33.9773 32.264 34.3613 33.48C34.5533 33.992 34.6493 34.808 34.6493 35.928V44.328C34.6493 45.64 35.0173 46.664 35.7533 47.4C36.5213 48.136 37.5293 48.504 38.7773 48.504C40.0573 48.504 41.0813 48.12 41.8493 47.352C42.6493 46.584 43.0493 45.576 43.0493 44.328V35.832C43.0493 35.096 43.0653 34.552 43.0973 34.2C43.1613 33.816 43.3213 33.384 43.5773 32.904C43.9933 32.072 45.2253 31.656 47.2733 31.656C49.2893 31.656 50.5213 32.088 50.9693 32.952C51.1933 33.432 51.3213 33.864 51.3533 34.248C51.4173 34.6 51.4493 35.144 51.4493 35.88V52.872C51.4493 53.576 51.4173 54.12 51.3533 54.504C51.3213 54.856 51.1773 55.256 50.9213 55.704C50.4413 56.536 49.2093 56.952 47.2253 56.952C45.2733 56.952 44.0733 56.568 43.6253 55.8C43.3053 55.256 43.1453 54.6 43.1453 53.832C43.0173 54.056 42.7293 54.376 42.2813 54.792C41.8333 55.208 41.4013 55.56 40.9853 55.848C39.8973 56.552 38.7133 56.904 37.4333 56.904ZM66.5426 56.904C63.3106 56.904 60.6226 55.688 58.4786 53.256C56.3666 50.792 55.3106 47.8 55.3106 44.28V35.88C55.3106 35.112 55.3266 34.552 55.3586 34.2C55.4226 33.848 55.5666 33.432 55.7906 32.952C56.2386 32.088 57.4866 31.656 59.5346 31.656C61.7746 31.656 63.0866 32.264 63.4706 33.48C63.6626 33.992 63.7586 34.808 63.7586 35.928V44.328C63.7586 45.64 64.1266 46.664 64.8626 47.4C65.6306 48.136 66.6386 48.504 67.8866 48.504C69.1666 48.504 70.1906 48.12 70.9586 47.352C71.7586 46.584 72.1586 45.576 72.1586 44.328V35.832C72.1586 35.096 72.1746 34.552 72.2066 34.2C72.2706 33.816 72.4306 33.384 72.6866 32.904C73.1026 32.072 74.3346 31.656 76.3826 31.656C78.3986 31.656 79.6306 32.088 80.0786 32.952C80.3026 33.432 80.4306 33.864 80.4626 34.248C80.5266 34.6 80.5586 35.144 80.5586 35.88V52.872C80.5586 53.576 80.5266 54.12 80.4626 54.504C80.4306 54.856 80.2866 55.256 80.0306 55.704C79.5506 56.536 78.3186 56.952 76.3346 56.952C74.3826 56.952 73.1826 56.568 72.7346 55.8C72.4146 55.256 72.2546 54.6 72.2546 53.832C72.1266 54.056 71.8386 54.376 71.3906 54.792C70.9426 55.208 70.5106 55.56 70.0946 55.848C69.0066 56.552 67.8226 56.904 66.5426 56.904ZM99.3 44.328L105.684 49.608C106.484 50.28 106.98 50.792 107.172 51.144C107.396 51.496 107.508 51.832 107.508 52.152C107.508 52.92 107.012 53.96 106.02 55.272C104.932 56.616 103.972 57.288 103.14 57.288C102.436 57.288 101.46 56.824 100.212 55.896L99.732 55.56C98.996 54.952 97.86 53.896 96.324 52.392C94.788 50.856 93.62 49.768 92.82 49.128V52.824C92.82 53.56 92.788 54.12 92.724 54.504C92.692 54.856 92.548 55.272 92.292 55.752C91.876 56.584 90.644 57 88.596 57C86.58 57 85.348 56.568 84.9 55.704C84.676 55.224 84.532 54.808 84.468 54.456C84.436 54.072 84.42 53.512 84.42 52.776V24.024C84.42 23.288 84.436 22.744 84.468 22.392C84.532 22.008 84.676 21.576 84.9 21.096C85.348 20.232 86.596 19.8 88.644 19.8C90.18 19.8 91.268 20.072 91.908 20.616C92.452 21.064 92.74 21.768 92.772 22.728C92.804 23.016 92.82 23.464 92.82 24.072V39.288C93.396 38.808 94.26 37.992 95.412 36.84C96.596 35.688 97.476 34.872 98.052 34.392L98.628 34.008C99.748 33.144 100.708 32.712 101.508 32.712C102.308 32.712 103.22 33.368 104.244 34.68C105.3 35.96 105.828 36.968 105.828 37.704C105.828 38.44 105.236 39.304 104.052 40.296L99.3 44.328ZM133.085 41.352C133.085 43.304 132.589 44.76 131.597 45.72C130.637 46.648 129.565 47.112 128.381 47.112H117.005C117.005 48.008 117.533 48.76 118.589 49.368C119.645 49.976 120.701 50.28 121.757 50.28C123.613 50.28 125.069 50.088 126.125 49.704L126.653 49.512C127.421 49.16 128.061 48.984 128.573 48.984C129.597 48.984 130.477 49.704 131.213 51.144C131.629 52.008 131.837 52.744 131.837 53.352C131.837 56.2 128.429 57.624 121.613 57.624C119.245 57.624 117.133 57.224 115.277 56.424C113.453 55.592 112.029 54.504 111.005 53.16C108.989 50.568 107.981 47.672 107.981 44.472C107.981 40.44 109.277 37.224 111.869 34.824C114.493 32.392 117.757 31.176 121.661 31.176C126.109 31.176 129.373 32.744 131.453 35.88C132.541 37.544 133.085 39.368 133.085 41.352ZM122.957 42.744C124.173 42.744 124.781 42.232 124.781 41.208C124.781 40.472 124.493 39.88 123.917 39.432C123.373 38.984 122.573 38.76 121.517 38.76C120.493 38.76 119.469 39.192 118.445 40.056C117.421 40.888 116.909 41.784 116.909 42.744H122.957ZM153.161 21.192C153.417 20.712 153.849 20.376 154.457 20.184C155.065 19.992 155.865 19.896 156.857 19.896C157.881 19.896 158.697 19.992 159.305 20.184C159.913 20.376 160.329 20.712 160.553 21.192C160.809 21.672 160.953 22.104 160.985 22.488C161.049 22.84 161.081 23.384 161.081 24.12V52.776C161.081 53.512 161.049 54.072 160.985 54.456C160.953 54.808 160.809 55.208 160.553 55.656C160.073 56.52 158.713 56.952 156.473 56.952C154.265 56.952 153.033 56.168 152.777 54.6C151.433 56.136 149.561 56.904 147.161 56.904C144.281 56.904 141.657 55.656 139.289 53.16C136.921 50.632 135.737 47.704 135.737 44.376C135.737 41.016 136.921 38.072 139.289 35.544C141.689 33.016 144.313 31.752 147.161 31.752C149.529 31.752 151.369 32.552 152.681 34.152V24.072C152.681 23.336 152.697 22.792 152.729 22.44C152.793 22.056 152.937 21.64 153.161 21.192ZM145.385 47.256C146.217 48.12 147.225 48.552 148.409 48.552C149.593 48.552 150.569 48.12 151.337 47.256C152.137 46.392 152.537 45.448 152.537 44.424C152.537 43.368 152.153 42.392 151.385 41.496C150.649 40.6 149.641 40.152 148.361 40.152C147.081 40.152 146.057 40.6 145.289 41.496C144.521 42.36 144.137 43.32 144.137 44.376C144.137 45.432 144.553 46.392 145.385 47.256Z" fill="#5969BD"/>
</svg>
